<svg width="49" height="48" viewBox="0 0 49 48" fill="none" xmlns="http://www.w3.org/2000/svg">
<rect x="0.5" width="48" height="48" rx="8" fill="white" fill-opacity="0.1"/>
<g clip-path="url(#clip0_2001_833)">
<path d="M38.5 24.085C38.5 31.0721 33.3737 36.8646 26.6817 37.9158V28.159H29.9355L30.555 24.1223H26.6817V21.5031C26.6817 20.3983 27.223 19.3226 28.9567 19.3226H30.7172V15.8856C30.7172 15.8856 29.1188 15.6126 27.5917 15.6126C24.402 15.6126 22.3183 17.5458 22.3183 21.0446V24.1211H18.7728V28.1578H22.3183V37.9146C15.6275 36.8623 10.5 31.071 10.5 24.085C10.5 16.3535 16.7685 10.085 24.5 10.085C32.2315 10.085 38.5 16.3523 38.5 24.085Z" fill="white"/>
</g>
<defs>
<clipPath id="clip0_2001_833">
<rect width="28" height="28" fill="white" transform="translate(10.5 10)"/>
</clipPath>
</defs>
</svg>
