<svg width="49" height="48" viewBox="0 0 49 48" fill="none" xmlns="http://www.w3.org/2000/svg">
<rect x="0.5" width="48" height="48" rx="8" fill="white" fill-opacity="0.1"/>
<path d="M22.3903 20.2769V25.3266C22.2098 25.2905 22.0391 25.2477 21.8657 25.223C20.4246 25.018 19.219 25.4772 18.2741 26.5976C17.5971 27.4004 17.3195 28.3523 17.3895 29.4068C17.509 31.2087 18.9227 32.736 20.6789 32.9854C22.7503 33.2794 24.5848 31.8923 25.0095 29.9515C25.0724 29.6642 25.0996 29.3736 25.0995 29.079C25.0983 26.2646 25.0988 23.45 25.0988 20.6356C25.0988 17.1724 25.0988 13.7093 25.0988 10.2462V10.0327C25.2299 9.99579 29.7776 9.98732 29.9787 10.0219C29.9889 10.1637 29.997 10.3088 30.0102 10.4534C30.1453 11.936 30.5949 13.2957 31.5425 14.4538C32.3033 15.3836 33.279 15.9791 34.4101 16.3213C34.9905 16.4968 35.5842 16.5994 36.1888 16.6371C36.2825 16.6431 36.3759 16.6542 36.4675 16.6627C36.5007 16.7888 36.5139 21.2425 36.4811 21.5697C36.4311 21.5697 36.3782 21.5736 36.326 21.5692C34.8514 21.4419 33.4114 21.1555 32.037 20.5802C31.3266 20.2828 30.6614 19.9046 30.0785 19.3881C30.059 19.3708 30.0354 19.3583 29.9847 19.3239V19.5437C29.9847 22.7078 29.9832 25.872 29.9852 29.0362C29.9864 30.8508 29.5223 32.5283 28.5212 34.0314C27.1323 36.1165 25.2131 37.4139 22.7759 37.857C18.0956 38.7076 13.7665 35.6733 12.7285 31.1134C12.0613 28.1826 12.8761 25.128 14.9029 22.9707C16.2556 21.5311 17.9026 20.6456 19.8337 20.3127C20.6583 20.1707 21.4856 20.1565 22.3153 20.2577C22.3363 20.2603 22.3567 20.2681 22.3903 20.2767V20.2769Z" fill="white"/>
</svg>
