<svg width="49" height="48" viewBox="0 0 49 48" fill="none" xmlns="http://www.w3.org/2000/svg">
<rect x="0.5" width="48" height="48" rx="8" fill="white" fill-opacity="0.1"/>
<path d="M40.3097 15.7473C39.9302 14.2725 38.8124 13.11 37.392 12.7154C34.8194 12 24.5 12 24.5 12C24.5 12 14.1806 12 11.6066 12.7154C10.1876 13.11 9.06975 14.2711 8.69025 15.7473C8 18.4216 8 24 8 24C8 24 8 29.5784 8.69025 32.2527C9.06975 33.7275 10.1876 34.89 11.608 35.2846C14.1806 36 24.5 36 24.5 36C24.5 36 34.8194 36 37.3934 35.2846C38.8124 34.89 39.9303 33.7289 40.3111 32.2527C41 29.5784 41 24 41 24C41 24 41 18.4216 40.3097 15.7473ZM21.1257 29.066V18.934L29.7498 24L21.1257 29.066Z" fill="white"/>
</svg>
