<svg width="26" height="24" viewBox="0 0 26 24" fill="none" xmlns="http://www.w3.org/2000/svg">
<path d="M9.35311 3.31707C9.81845 2.87034 10.3476 2.41829 10.813 1.96624C11.1108 1.6764 11.4059 1.38655 11.6958 1.08873C11.7702 1.01428 11.8394 0.977051 11.9484 0.977051C14.0704 0.982369 16.1924 0.982369 18.3143 0.982369C18.3649 0.982369 18.5244 0.982369 18.5244 0.982369C18.2532 1.25892 18.0192 1.51419 17.7798 1.75351C17.2826 2.25343 16.7827 2.75068 16.2828 3.25059C15.7084 3.82496 15.134 4.39667 14.5597 4.96838C13.02 6.50003 11.4777 8.03168 9.94077 9.56599C9.03402 10.4701 8.13258 11.3795 7.21784 12.2756C7.045 12.4432 7.06095 12.5442 7.21784 12.7011C8.02089 13.4962 8.81863 14.2992 9.61636 15.097C10.3157 15.7963 11.0124 16.4956 11.7144 17.1923C12.4776 17.9502 13.2461 18.7054 14.0092 19.4632C15.4744 20.9204 16.9342 22.3829 18.3968 23.8428C18.426 23.872 18.4499 23.9093 18.4792 23.9438C18.4101 24.0263 18.325 23.9917 18.2532 23.9917C16.1312 23.9917 14.0092 23.9917 11.8872 23.9997C11.6772 23.9997 11.5469 23.9199 11.4086 23.7816C10.7624 23.1275 9.35577 21.7873 9.35577 21.7873C9.35577 21.7873 9.35577 22.8084 9.35577 23.3083C9.35577 23.7657 9.12886 23.9944 8.67504 23.9944C7.5263 23.9944 6.37756 23.9864 5.22882 23.9997C4.96823 24.0023 4.88845 23.9465 4.88845 23.6699C4.90175 21.6384 4.89377 19.6068 4.89909 17.5726C4.89909 17.3944 4.8592 17.2615 4.72359 17.1312C3.65197 16.0782 2.58832 15.0198 1.52467 13.9589C1.04337 13.4802 0.567392 12.9936 0.0807737 12.5176C-0.02825 12.4112 -0.0255909 12.3501 0.0807737 12.2464C0.72428 11.6295 1.35981 11.0046 2.00331 10.3877C2.80637 9.61652 3.59612 8.83208 4.42843 8.0955C4.79007 7.77641 4.90973 7.452 4.90175 6.98133C4.87516 5.07209 4.89377 3.1655 4.8858 1.25626C4.8858 1.03289 4.94696 0.977051 5.165 0.977051C6.47329 0.987687 7.78157 0.987687 9.08986 0.977051C9.29727 0.977051 9.35843 1.03023 9.35577 1.2403C9.34247 1.87583 9.35045 3.31707 9.35045 3.31707H9.35311ZM4.88048 8.45448C4.88048 8.45448 2.05118 11.1216 0.90244 12.2038C0.756189 12.3421 0.758848 12.4166 0.90244 12.5548C2.14691 13.7834 4.88314 16.4371 4.88314 16.4371V8.45182L4.88048 8.45448Z" fill="#E89E3F"/>
<path d="M22.7206 23.9942C22.0478 23.9942 21.3777 23.9889 20.7049 23.9969C20.5401 23.9969 20.4231 23.9437 20.3087 23.8294C19.2371 22.7524 18.1602 21.6781 17.0885 20.6012C16.2802 19.7902 15.4851 18.9685 14.6741 18.1575C14.0385 17.5219 13.3897 16.8997 12.7568 16.2642C11.5789 15.0835 10.4062 13.8922 9.22554 12.7116C9.10056 12.5866 9.08461 12.5122 9.22554 12.3765C10.1483 11.4645 11.063 10.5471 11.9777 9.62702C12.81 8.7894 13.6317 7.9438 14.4667 7.10618C16.445 5.12248 18.4287 3.1441 20.4071 1.16306C20.5348 1.03542 20.6624 0.97692 20.8459 0.979579C22.1462 0.987556 23.4465 0.982238 24.7441 0.987556C24.8319 0.987556 24.9516 0.974261 24.9994 1.05403C25.042 1.18167 25.026 1.30665 24.9143 1.41833C24.1405 2.17884 23.3667 2.94201 22.5982 3.71049C22.1621 4.14659 21.734 4.59066 21.2979 5.02675C20.8113 5.51071 20.3141 5.98669 19.8274 6.47331C19.3967 6.90143 18.9792 7.34284 18.5484 7.77096C18.0884 8.23099 17.6151 8.68304 17.155 9.14306C16.6817 9.61639 16.219 10.1003 15.7457 10.5737C15.1607 11.1587 14.5704 11.7437 13.9747 12.318C13.8338 12.451 13.8152 12.5122 13.9694 12.6637C14.7831 13.4588 15.5755 14.2725 16.3812 15.0756C17.0354 15.727 17.7028 16.3679 18.3569 17.022C18.9739 17.6389 19.5775 18.2665 20.1944 18.8834C20.6544 19.3434 21.1304 19.7928 21.5904 20.2528C22.0638 20.7262 22.5238 21.2128 22.9971 21.6861C23.5901 22.2791 24.191 22.8614 24.7867 23.4491C24.8505 23.5103 24.917 23.5688 24.9728 23.6379C25.0446 23.731 25.0473 23.8506 24.9994 23.941C24.9648 24.0075 24.8638 23.9995 24.7893 23.9995C24.1006 23.9995 23.4093 23.9995 22.7206 23.9995V23.9942Z" fill="#FCD15E"/>
<path d="M25.4648 9.30773V21.8534C25.3425 21.8189 20.1519 16.599 17.6204 14.0675C17.1843 13.6315 16.7509 13.19 16.3094 12.7593C16.1472 12.6024 16.1339 12.4987 16.3121 12.3205C19.2797 9.36357 22.2393 6.39866 25.1989 3.4364C25.2786 3.35663 25.3611 3.28483 25.4728 3.17847C25.4728 4.16234 25.4728 5.10367 25.4728 6.04765C25.4728 6.30825 25.4861 6.55554 25.4302 6.80816C25.3797 7.04748 25.3079 7.2868 25.1989 7.50751C25.135 7.63514 25.0553 7.76012 24.9463 7.85851C24.2708 8.45947 23.638 9.11361 22.9971 9.7518C22.3749 10.374 21.7686 11.0096 21.1464 11.6291C20.9416 11.8339 20.7183 12.02 20.5295 12.2434C20.4417 12.3471 20.4337 12.4109 20.5295 12.5066C21.4256 13.3842 22.2871 14.2962 23.2098 15.1471C23.4173 15.3386 23.5768 15.5779 23.8081 15.7428C23.856 15.7774 23.8879 15.8492 23.9624 15.8146C24.0209 15.788 24.0076 15.7242 24.0076 15.6737C24.0076 15.0647 24.0076 14.4531 24.0076 13.8442C24.0076 13.6873 23.8932 13.6128 23.8002 13.5224C23.4332 13.1661 23.0663 12.8098 22.6887 12.4668C22.5663 12.3551 22.5717 12.2859 22.6807 12.1716C23.3082 11.5254 23.9252 10.8713 24.5554 10.2251C24.8425 9.92996 25.0898 9.59225 25.4568 9.31039L25.4648 9.30773Z" fill="#FDF69C"/>
</svg>
