<svg width="144" height="17" viewBox="0 0 144 17" fill="none" xmlns="http://www.w3.org/2000/svg">
<path d="M0.150146 0.624023H2.62385V5.15779L7.09602 0.624023H10.4446L4.54364 6.48773L10.8255 13.301H7.55866L2.62385 7.97488V13.301H0.150146V0.624023Z" fill="#E89E3F"/>
<path d="M16.1633 7.01672C16.1633 3.13332 18.8778 0.490723 22.5748 0.490723C25.8593 0.490723 28.3376 2.65658 28.9391 5.72541H26.3348C25.8435 3.97631 24.3981 2.74814 22.5906 2.74814C20.3831 2.74814 18.7172 4.46568 18.7172 7.01356C18.7172 9.56145 20.3831 11.2948 22.6221 11.2948C24.4957 11.2948 25.938 10.1487 26.3852 8.30171H28.9737C28.451 11.4842 25.9412 13.568 22.6095 13.568C18.8778 13.568 16.1665 10.9096 16.1665 7.0104L16.1633 7.01672Z" fill="#E89E3F"/>
<path d="M30.1742 8.21108C30.1742 5.03496 32.3143 2.89233 35.109 2.89233C36.4906 2.89233 37.6299 3.43114 38.4073 4.35436V3.06879H40.8495V13.3912H38.4073V12.0899C37.6299 13.0257 36.4875 13.5676 35.109 13.5676C32.3174 13.5676 30.1742 11.4061 30.1742 8.21423V8.21108ZM35.5685 11.3084C37.2491 11.3084 38.4387 10.0701 38.4387 8.21108C38.4387 6.35204 37.2491 5.14524 35.5685 5.14524C33.8879 5.14524 32.6983 6.3678 32.6983 8.21108C32.6983 10.0544 33.8879 11.3084 35.5685 11.3084Z" fill="#E89E3F"/>
<path d="M42.4513 3.06796H44.851V4.34752C45.6198 3.43176 46.7496 2.89233 48.1128 2.89233C50.8736 2.89233 52.9932 5.04062 52.9932 8.20502C52.9932 11.3694 50.8767 13.5177 48.1128 13.5177C46.7651 13.5177 45.6509 12.9971 44.8821 12.0939V16.5033H42.4513V3.06796ZM47.6584 11.2722C49.3205 11.2722 50.497 10.0554 50.497 8.20502C50.497 6.35468 49.3205 5.13784 47.6584 5.13784C45.9964 5.13784 44.8199 6.37036 44.8199 8.20502C44.8199 10.0397 45.9964 11.2722 47.6584 11.2722Z" fill="#E89E3F"/>
<path d="M54.4607 0.624268H56.9961V2.84399H54.4607V0.624268ZM54.4607 4.36258H56.9961V13.3012H54.4607V4.36258Z" fill="#E89E3F"/>
<path d="M60.5033 5.21977H58.5975V3.0006H60.5033V0.624268H62.9792V3.0006H64.8693V5.21977H62.9792V13.3012H60.5033V5.21977Z" fill="#E89E3F"/>
<path d="M65.9364 8.21108C65.9364 5.03496 68.0765 2.89233 70.8712 2.89233C72.2528 2.89233 73.3921 3.43114 74.1695 4.35436V3.06879H76.6117V13.3912H74.1695V12.0899C73.3921 13.0257 72.2497 13.5676 70.8712 13.5676C68.0796 13.5676 65.9364 11.4061 65.9364 8.21423V8.21108ZM71.3307 11.3084C73.0113 11.3084 74.201 10.0701 74.201 8.21108C74.201 6.35204 73.0113 5.14524 71.3307 5.14524C69.6501 5.14524 68.4605 6.3678 68.4605 8.21108C68.4605 10.0544 69.6501 11.3084 71.3307 11.3084Z" fill="#E89E3F"/>
<path d="M78.8805 0.624268H81.2824V13.3012H78.8805V0.624268Z" fill="#E89E3F"/>
<path d="M87.2939 7.01357C87.2939 3.13205 90.2027 0.490723 94.1813 0.490723C97.6334 0.490723 100.323 2.62083 100.967 5.69133H98.1767C97.6503 3.94307 96.1183 2.75021 94.1813 2.75021C91.7989 2.75021 90.0306 4.48269 90.0306 7.01357C90.0306 9.54445 91.8157 11.3085 94.3669 11.3085C96.3241 11.3085 97.8865 10.4975 98.2105 9.17838H93.7864V7.14295H101.032C101.032 10.9771 98.3286 13.568 94.3635 13.568C90.196 13.568 87.2871 10.9109 87.2871 7.01357H87.2939Z" fill="#E89E3F"/>
<path d="M102.5 3.06414H105.427V4.52919C105.751 3.94817 106.796 2.98605 108.505 2.89233V5.37886C106.66 5.37886 105.465 6.40346 105.465 7.97784V13.3008H102.5V3.06414Z" fill="#E89E3F"/>
<path d="M108.505 8.16347C108.505 5.18586 110.806 3.15942 114.109 3.15942C117.412 3.15942 119.714 5.1829 119.714 8.16347C119.714 11.144 117.412 13.1675 114.109 13.1675C110.806 13.1675 108.505 11.1588 108.505 8.16347ZM114.109 11.0672C115.867 11.0672 117.099 9.90633 117.099 8.16347C117.099 6.42062 115.867 5.25971 114.109 5.25971C112.352 5.25971 111.136 6.43539 111.136 8.16347C111.136 9.89156 112.368 11.0672 114.109 11.0672Z" fill="#E89E3F"/>
<path d="M130.789 13.3905H128.083V12.0676C127.802 12.6911 126.756 13.5677 124.958 13.5677C122.373 13.5677 120.381 11.748 120.381 9.05478V3.02588H123.104V9.0073C123.104 10.4125 124.099 11.3524 125.585 11.3524C127.071 11.3524 128.066 10.4125 128.066 9.0073V3.02588H130.789V13.3937V13.3905Z" fill="#E89E3F"/>
<path d="M132.391 3.06796H135.033V4.34752C135.88 3.43176 137.124 2.89233 138.625 2.89233C141.666 2.89233 144 5.04062 144 8.20502C144 11.3694 141.669 13.5177 138.625 13.5177C137.141 13.5177 135.914 12.9971 135.067 12.0939V16.5033H132.391V3.06796ZM138.128 11.2722C139.959 11.2722 141.254 10.0554 141.254 8.20502C141.254 6.35468 139.959 5.13784 138.128 5.13784C136.298 5.13784 135.002 6.37036 135.002 8.20502C135.002 10.0397 136.298 11.2722 138.128 11.2722Z" fill="#E89E3F"/>
</svg>
