<svg width="53" height="47" viewBox="0 0 53 47" fill="none" xmlns="http://www.w3.org/2000/svg">
<path d="M19.5934 4.7769C20.5433 3.86495 21.6236 2.94214 22.5735 2.01933C23.1815 1.42764 23.784 0.835958 24.3757 0.227989C24.5277 0.0759962 24.6688 0 24.8914 0C29.2232 0.0108566 33.555 0.0108566 37.8868 0.0108566C37.9899 0.0108566 38.3156 0.0108566 38.3156 0.0108566C37.7619 0.5754 37.2842 1.09652 36.7957 1.58506C35.7806 2.60558 34.7601 3.62068 33.7395 4.6412C32.567 5.81371 31.3945 6.98079 30.222 8.14788C27.079 11.2746 23.9306 14.4013 20.793 17.5334C18.942 19.379 17.1018 21.2355 15.2345 23.0648C14.8816 23.4068 14.9142 23.6131 15.2345 23.9334C16.8738 25.5564 18.5023 27.1958 20.1308 28.8243C21.5584 30.2519 22.9806 31.6796 24.4137 33.1018C25.9716 34.6488 27.5404 36.1905 29.0983 37.7375C32.0893 40.7123 35.0695 43.6978 38.055 46.678C38.1147 46.7377 38.1636 46.8137 38.2233 46.8842C38.0822 47.0525 37.9085 46.9819 37.7619 46.9819C33.4301 46.9819 29.0983 46.9819 24.7666 46.9982C24.3377 46.9982 24.0717 46.8354 23.7895 46.5531C22.4704 45.2177 19.5988 42.4819 19.5988 42.4819C19.5988 42.4819 19.5988 44.5663 19.5988 45.5869C19.5988 46.5205 19.1356 46.9874 18.2092 46.9874C15.8641 46.9874 13.5191 46.9711 11.1741 46.9982C10.6421 47.0037 10.4793 46.8897 10.4793 46.3251C10.5064 42.1779 10.4901 38.0307 10.501 33.878C10.501 33.5143 10.4195 33.2429 10.1427 32.9769C7.9551 30.8273 5.78378 28.6669 3.61246 26.501C2.62994 25.5239 1.65827 24.5305 0.664891 23.5588C0.442331 23.3417 0.447759 23.2168 0.664891 23.0051C1.97854 21.7458 3.2759 20.4701 4.58955 19.2108C6.2289 17.6365 7.84111 16.0352 9.54016 14.5316C10.2784 13.8802 10.5227 13.2179 10.5064 12.2571C10.4521 8.35958 10.4901 4.46749 10.4738 0.569972C10.4738 0.113994 10.5987 0 11.0438 0C13.7145 0.0217132 16.3853 0.0217132 19.056 0C19.4794 0 19.6042 0.108566 19.5988 0.537402C19.5717 1.83477 19.5879 4.7769 19.5879 4.7769H19.5934ZM10.463 15.2644C10.463 15.2644 4.68726 20.709 2.34224 22.9183C2.04368 23.2006 2.04911 23.3525 2.34224 23.6348C4.88268 26.1427 10.4684 31.5601 10.4684 31.5601V15.259L10.463 15.2644Z" fill="#E89E3F"/>
<path d="M46.8818 46.9865C45.5084 46.9865 44.1405 46.9757 42.7671 46.992C42.4306 46.992 42.1917 46.8834 41.9583 46.65C39.7707 44.4515 37.5722 42.2585 35.3846 40.06C33.7344 38.4044 32.1114 36.727 30.4557 35.0714C29.1584 33.774 27.8339 32.5038 26.5419 31.2065C24.1372 28.7963 21.7433 26.3644 19.3331 23.9542C19.078 23.6991 19.0454 23.5471 19.3331 23.2703C21.2168 21.4084 23.0841 19.5356 24.9514 17.6574C26.6505 15.9475 28.3278 14.2213 30.0323 12.5114C34.071 8.46187 38.1205 4.42321 42.1591 0.379124C42.4197 0.118566 42.6803 -0.000856928 43.0548 0.00457137C45.7093 0.0208563 48.3637 0.00999968 51.0127 0.0208563C51.1918 0.0208563 51.4361 -0.00628524 51.5338 0.156564C51.6207 0.417122 51.5881 0.672252 51.3601 0.900241C49.7805 2.45274 48.2008 4.01066 46.6321 5.57944C45.7418 6.46968 44.8679 7.3762 43.9776 8.26645C42.9842 9.2544 41.9692 10.2261 40.9758 11.2194C40.0964 12.0934 39.2442 12.9945 38.3648 13.8685C37.4257 14.8075 36.4594 15.7304 35.5203 16.6695C34.5541 17.6357 33.6096 18.6236 32.6433 19.5899C31.4491 20.7841 30.244 21.9783 29.0281 23.1509C28.7404 23.4223 28.7024 23.5471 29.0172 23.8565C30.6783 25.4796 32.2959 27.1407 33.9407 28.78C35.2761 30.1099 36.6386 31.4182 37.9739 32.7535C39.2333 34.0129 40.4655 35.294 41.7249 36.5533C42.664 37.4924 43.6356 38.4098 44.5747 39.3489C45.541 40.3151 46.4801 41.3085 47.4463 42.2748C48.6568 43.4853 49.8836 44.6741 51.0996 45.8737C51.2298 45.9986 51.3656 46.118 51.4795 46.2591C51.6261 46.4491 51.6315 46.6934 51.5338 46.878C51.4633 47.0137 51.257 46.9974 51.105 46.9974C49.6991 46.9974 48.2877 46.9974 46.8818 46.9974V46.9865Z" fill="#FCD15E"/>
<path d="M52.4838 17.0069V42.6176C52.2341 42.547 41.6381 31.8913 36.4703 26.7235C35.5801 25.8333 34.6953 24.9322 33.7942 24.0528C33.463 23.7325 33.4359 23.5208 33.7996 23.1571C39.8576 17.1209 45.8993 11.0683 51.941 5.02117C52.1038 4.85833 52.2721 4.71176 52.5001 4.49463C52.5001 6.5031 52.5001 8.42472 52.5001 10.3518C52.5001 10.8837 52.5272 11.3886 52.4132 11.9043C52.3101 12.3928 52.1635 12.8814 51.941 13.3319C51.8107 13.5925 51.6478 13.8476 51.4253 14.0484C50.0465 15.2752 48.7546 16.6106 47.4463 17.9134C46.1761 19.1836 44.9385 20.481 43.6682 21.7458C43.2503 22.1638 42.7943 22.5437 42.4089 22.9997C42.2297 23.2114 42.2135 23.3417 42.4089 23.5371C44.2382 25.3285 45.997 27.1904 47.8806 28.9274C48.304 29.3183 48.6297 29.8068 49.102 30.1434C49.1997 30.2139 49.2648 30.3605 49.4168 30.2899C49.5362 30.2356 49.5091 30.1054 49.5091 30.0022C49.5091 28.7591 49.5091 27.5106 49.5091 26.2675C49.5091 25.9473 49.2757 25.7953 49.0857 25.6107C48.3366 24.8833 47.5875 24.1559 46.8167 23.4557C46.567 23.2277 46.5778 23.0866 46.8004 22.8531C48.0815 21.5341 49.3408 20.1987 50.6273 18.8796C51.2136 18.2771 51.7184 17.5877 52.4675 17.0123L52.4838 17.0069Z" fill="#FDF69C"/>
</svg>
